<?xml version="1.0" encoding="UTF-8" standalone="no"?>
<!DOCTYPE svg PUBLIC "-//W3C//DTD SVG 1.1//EN"
 "http://www.w3.org/Graphics/SVG/1.1/DTD/svg11.dtd">
<!-- Generated by graphviz version 2.43.0 (0)
 -->
<!-- Title: G Pages: 1 -->
<svg width="1028pt" height="947pt"
 viewBox="0.00 0.00 1028.20 947.00" xmlns="http://www.w3.org/2000/svg" xmlns:xlink="http://www.w3.org/1999/xlink">
<g id="graph0" class="graph" transform="scale(1 1) rotate(0) translate(4 943)">
<title>G</title><style>.edge>path:hover{stroke-width:8}</style>
<polygon fill="white" stroke="transparent" points="-4,4 -4,-943 1024.2,-943 1024.2,4 -4,4"/>
<!-- Run_py -->
<g id="node1" class="node">
<title>Run_py</title><style>.edge>path:hover{stroke-width:8}</style>
<ellipse fill="#597740" stroke="black" cx="242.2" cy="-18" rx="29.37" ry="18"/>
<text text-anchor="middle" x="242.2" y="-15.5" font-family="Helvetica,sans-Serif" font-size="10.00" fill="#ffffff">Run.py</text>
</g>
<!-- Camera -->
<g id="node2" class="node">
<title>Camera</title><style>.edge>path:hover{stroke-width:8}</style>
<polygon fill="#c04040" stroke="black" points="255.7,-289 252.7,-293 231.7,-293 228.7,-289 200.7,-289 200.7,-253 255.7,-253 255.7,-289"/>
<text text-anchor="middle" x="228.2" y="-268.5" font-family="Helvetica,sans-Serif" font-size="10.00" fill="#ffffff">Camera</text>
</g>
<!-- Goniometer -->
<g id="node4" class="node">
<title>Goniometer</title><style>.edge>path:hover{stroke-width:8}</style>
<polygon fill="#a85e38" stroke="black" points="149.2,-217 146.2,-221 125.2,-221 122.2,-217 75.2,-217 75.2,-181 149.2,-181 149.2,-217"/>
<text text-anchor="middle" x="112.2" y="-196.5" font-family="Helvetica,sans-Serif" font-size="10.00" fill="#ffffff">Goniometer</text>
</g>
<!-- Camera&#45;&gt;Goniometer -->
<g id="edge1" class="edge">
<title>Camera&#45;&gt;Goniometer</title><style>.edge>path:hover{stroke-width:8}</style>
<path fill="none" stroke="black" d="M200.41,-253.23C185.14,-244.02 166,-232.47 149.45,-222.48"/>
<polygon fill="#c04040" stroke="black" points="150.93,-219.29 140.56,-217.12 147.32,-225.28 150.93,-219.29"/>
</g>
<!-- Painter -->
<g id="node10" class="node">
<title>Painter</title><style>.edge>path:hover{stroke-width:8}</style>
<polygon fill="#546b2e" stroke="black" points="297.2,-145 294.2,-149 273.2,-149 270.2,-145 243.2,-145 243.2,-109 297.2,-109 297.2,-145"/>
<text text-anchor="middle" x="270.2" y="-124.5" font-family="Helvetica,sans-Serif" font-size="10.00" fill="#ffffff">Painter</text>
</g>
<!-- Camera&#45;&gt;Painter -->
<g id="edge2" class="edge">
<title>Camera&#45;&gt;Painter</title><style>.edge>path:hover{stroke-width:8}</style>
<path fill="none" stroke="black" d="M256.08,-257.18C259.15,-255.77 262.24,-254.35 265.2,-253 310.23,-232.4 371.9,-248.75 363.2,-200"/>
<path fill="none" stroke="black" d="M363.2,-198C358.18,-169.9 330.39,-151.5 306.48,-140.65"/>
<polygon fill="#c04040" stroke="black" points="307.8,-137.41 297.23,-136.72 305.07,-143.85 307.8,-137.41"/>
</g>
<!-- Function_chain -->
<g id="node3" class="node">
<title>Function_chain</title><style>.edge>path:hover{stroke-width:8}</style>
<polygon fill="#b66453" stroke="black" points="186.7,-145 183.7,-149 162.7,-149 159.7,-145 97.7,-145 97.7,-109 186.7,-109 186.7,-145"/>
<text text-anchor="middle" x="142.2" y="-124.5" font-family="Helvetica,sans-Serif" font-size="10.00" fill="#ffffff">Function_chain</text>
</g>
<!-- Function_chain&#45;&gt;Run_py -->
<g id="edge3" class="edge">
<title>Function_chain&#45;&gt;Run_py</title><style>.edge>path:hover{stroke-width:8}</style>
<path fill="none" stroke="black" d="M186.96,-111.59C216.06,-100.85 247.66,-85.89 242.2,-73"/>
<path fill="none" stroke="black" d="M242.2,-72C238.78,-63.93 237.91,-54.52 238.16,-45.9"/>
<polygon fill="#b66453" stroke="black" points="241.65,-46.14 238.92,-35.9 234.67,-45.61 241.65,-46.14"/>
</g>
<!-- Goniometer&#45;&gt;Run_py -->
<g id="edge5" class="edge">
<title>Goniometer&#45;&gt;Run_py</title><style>.edge>path:hover{stroke-width:8}</style>
<path fill="none" stroke="black" d="M147.69,-180.82C169.64,-168.67 197.01,-150.55 215.2,-128"/>
</g>
<!-- Goniometer&#45;&gt;Painter -->
<g id="edge4" class="edge">
<title>Goniometer&#45;&gt;Painter</title><style>.edge>path:hover{stroke-width:8}</style>
<path fill="none" stroke="black" d="M149.24,-181.59C174.64,-170.34 208.18,-155.48 233.5,-144.26"/>
<polygon fill="#a85e38" stroke="black" points="235.05,-147.4 242.77,-140.15 232.21,-141 235.05,-147.4"/>
</g>
<!-- Image_processor -->
<g id="node5" class="node">
<title>Image_processor</title><style>.edge>path:hover{stroke-width:8}</style>
<polygon fill="#c87823" stroke="black" points="374.2,-289 371.2,-293 350.2,-293 347.2,-289 274.2,-289 274.2,-253 374.2,-253 374.2,-289"/>
<text text-anchor="middle" x="324.2" y="-268.5" font-family="Helvetica,sans-Serif" font-size="10.00" fill="#000000">Image_processor</text>
</g>
<!-- Image_processor&#45;&gt;Run_py -->
<g id="edge9" class="edge">
<title>Image_processor&#45;&gt;Run_py</title><style>.edge>path:hover{stroke-width:8}</style>
<path fill="none" stroke="black" d="M294.31,-252.96C250.92,-226.1 179.39,-172.38 215.2,-128"/>
</g>
<!-- Image_processor&#45;&gt;Goniometer -->
<g id="edge6" class="edge">
<title>Image_processor&#45;&gt;Goniometer</title><style>.edge>path:hover{stroke-width:8}</style>
<path fill="none" stroke="black" d="M273.96,-253.41C239.19,-241.93 193.23,-226.75 159.19,-215.51"/>
<polygon fill="#c87823" stroke="black" points="160.07,-212.12 149.48,-212.31 157.87,-218.77 160.07,-212.12"/>
</g>
<!-- Model_generator -->
<g id="node8" class="node">
<title>Model_generator</title><style>.edge>path:hover{stroke-width:8}</style>
<polygon fill="#85883a" stroke="black" points="615.7,-217 612.7,-221 591.7,-221 588.7,-217 516.7,-217 516.7,-181 615.7,-181 615.7,-217"/>
<text text-anchor="middle" x="566.2" y="-196.5" font-family="Helvetica,sans-Serif" font-size="10.00" fill="#ffffff">Model_generator</text>
</g>
<!-- Image_processor&#45;&gt;Model_generator -->
<g id="edge7" class="edge">
<title>Image_processor&#45;&gt;Model_generator</title><style>.edge>path:hover{stroke-width:8}</style>
<path fill="none" stroke="black" d="M374.59,-255.55C409.34,-245.58 456.85,-231.9 506.84,-217.39"/>
<polygon fill="#c87823" stroke="black" points="507.9,-220.73 516.53,-214.57 505.95,-214 507.9,-220.73"/>
</g>
<!-- Image_processor&#45;&gt;Painter -->
<g id="edge8" class="edge">
<title>Image_processor&#45;&gt;Painter</title><style>.edge>path:hover{stroke-width:8}</style>
<path fill="none" stroke="black" d="M342.08,-252.85C353.94,-239.4 366.72,-219.72 363.2,-200"/>
</g>
<!-- Laser -->
<g id="node6" class="node">
<title>Laser</title><style>.edge>path:hover{stroke-width:8}</style>
<polygon fill="#b3934c" stroke="black" points="335.2,-217 332.2,-221 311.2,-221 308.2,-217 281.2,-217 281.2,-181 335.2,-181 335.2,-217"/>
<text text-anchor="middle" x="308.2" y="-196.5" font-family="Helvetica,sans-Serif" font-size="10.00" fill="#000000">Laser</text>
</g>
<!-- Laser&#45;&gt;Painter -->
<g id="edge10" class="edge">
<title>Laser&#45;&gt;Painter</title><style>.edge>path:hover{stroke-width:8}</style>
<path fill="none" stroke="black" d="M298.81,-180.7C294.43,-172.64 289.14,-162.89 284.3,-153.98"/>
<polygon fill="#b3934c" stroke="black" points="287.33,-152.22 279.48,-145.1 281.18,-155.56 287.33,-152.22"/>
</g>
<!-- Mcp -->
<g id="node7" class="node">
<title>Mcp</title><style>.edge>path:hover{stroke-width:8}</style>
<polygon fill="#ccb633" stroke="black" points="182.2,-289 179.2,-293 158.2,-293 155.2,-289 128.2,-289 128.2,-253 182.2,-253 182.2,-289"/>
<text text-anchor="middle" x="155.2" y="-268.5" font-family="Helvetica,sans-Serif" font-size="10.00" fill="#000000">Mcp</text>
</g>
<!-- Mcp&#45;&gt;Run_py -->
<g id="edge13" class="edge">
<title>Mcp&#45;&gt;Run_py</title><style>.edge>path:hover{stroke-width:8}</style>
<path fill="none" stroke="black" d="M128.07,-262.02C107.04,-254.24 79.35,-240.14 66.2,-217 58.29,-203.09 56.51,-193.73 66.2,-181 102.5,-133.28 143.59,-173.74 196.2,-145 206.14,-139.57 208.19,-136.9 215.2,-128"/>
<path fill="none" stroke="black" d="M215.2,-126C231.24,-104.99 252.51,-97.34 242.2,-73"/>
</g>
<!-- Mcp&#45;&gt;Laser -->
<g id="edge11" class="edge">
<title>Mcp&#45;&gt;Laser</title><style>.edge>path:hover{stroke-width:8}</style>
<path fill="none" stroke="black" d="M182.27,-257.55C185.62,-256.02 188.99,-254.47 192.2,-253 218.79,-240.81 248.84,-227.09 271.68,-216.66"/>
<polygon fill="#ccb633" stroke="black" points="273.36,-219.74 281,-212.41 270.45,-213.37 273.36,-219.74"/>
</g>
<!-- Mcp&#45;&gt;Painter -->
<g id="edge12" class="edge">
<title>Mcp&#45;&gt;Painter</title><style>.edge>path:hover{stroke-width:8}</style>
<path fill="none" stroke="black" d="M169.07,-252.87C189.19,-228.03 226.59,-181.85 249.84,-153.14"/>
<polygon fill="#ccb633" stroke="black" points="252.7,-155.16 256.28,-145.19 247.26,-150.76 252.7,-155.16"/>
</g>
<!-- Model_generator&#45;&gt;Run_py -->
<g id="edge14" class="edge">
<title>Model_generator&#45;&gt;Run_py</title><style>.edge>path:hover{stroke-width:8}</style>
<path fill="none" stroke="black" d="M571.26,-180.85C574.67,-165.61 576.83,-143.41 566.2,-128"/>
</g>
<!-- PIL -->
<g id="node9" class="node">
<title>PIL</title><style>.edge>path:hover{stroke-width:8}</style>
<polygon fill="#c0ef06" stroke="black" points="851.2,-649 848.2,-653 827.2,-653 824.2,-649 797.2,-649 797.2,-613 851.2,-613 851.2,-649"/>
<text text-anchor="middle" x="824.2" y="-628.5" font-family="Helvetica,sans-Serif" font-size="10.00" fill="#000000">PIL</text>
</g>
<!-- matplotlib -->
<g id="node21" class="node">
<title>matplotlib</title><style>.edge>path:hover{stroke-width:8}</style>
<polygon fill="#035795" stroke="black" points="489.7,-505 486.7,-509 465.7,-509 462.7,-505 422.7,-505 422.7,-469 489.7,-469 489.7,-505"/>
<text text-anchor="middle" x="456.2" y="-484.5" font-family="Helvetica,sans-Serif" font-size="10.00" fill="#ffffff">matplotlib</text>
</g>
<!-- PIL&#45;&gt;matplotlib -->
<g id="edge15" class="edge">
<title>PIL&#45;&gt;matplotlib</title><style>.edge>path:hover{stroke-width:8}</style>
<path fill="none" stroke="black" d="M797.19,-627.02C729.67,-619.1 555.76,-595.66 511.2,-560"/>
</g>
<!-- pyvista -->
<g id="node28" class="node">
<title>pyvista</title><style>.edge>path:hover{stroke-width:8}</style>
<polygon fill="#5f0395" stroke="black" points="531.2,-289 528.2,-293 507.2,-293 504.2,-289 477.2,-289 477.2,-253 531.2,-253 531.2,-289"/>
<text text-anchor="middle" x="504.2" y="-268.5" font-family="Helvetica,sans-Serif" font-size="10.00" fill="#ffffff">pyvista</text>
</g>
<!-- PIL&#45;&gt;pyvista -->
<g id="edge16" class="edge">
<title>PIL&#45;&gt;pyvista</title><style>.edge>path:hover{stroke-width:8}</style>
<path fill="none" stroke="black" d="M845.72,-612.74C859.42,-599.95 875.3,-581.13 879.2,-560"/>
<path fill="none" stroke="black" d="M879.2,-558C884.84,-527.41 872.5,-518.38 879.2,-488"/>
</g>
<!-- Painter&#45;&gt;Run_py -->
<g id="edge17" class="edge">
<title>Painter&#45;&gt;Run_py</title><style>.edge>path:hover{stroke-width:8}</style>
<path fill="none" stroke="black" d="M260.1,-108.7C254.39,-98.52 247.39,-85.27 242.2,-73"/>
</g>
<!-- Socket_connection -->
<g id="node11" class="node">
<title>Socket_connection</title><style>.edge>path:hover{stroke-width:8}</style>
<polygon fill="#6ac247" stroke="black" points="498.7,-217 495.7,-221 474.7,-221 471.7,-217 391.7,-217 391.7,-181 498.7,-181 498.7,-217"/>
<text text-anchor="middle" x="445.2" y="-196.5" font-family="Helvetica,sans-Serif" font-size="10.00" fill="#000000">Socket_connection</text>
</g>
<!-- Socket_connection&#45;&gt;Run_py -->
<g id="edge19" class="edge">
<title>Socket_connection&#45;&gt;Run_py</title><style>.edge>path:hover{stroke-width:8}</style>
<path fill="none" stroke="black" d="M492.2,-180.99C530.57,-165.73 576.84,-143.43 566.2,-128"/>
<path fill="none" stroke="black" d="M566.2,-126C524.77,-65.94 270.65,-140.18 242.2,-73"/>
</g>
<!-- Socket_connection&#45;&gt;Painter -->
<g id="edge18" class="edge">
<title>Socket_connection&#45;&gt;Painter</title><style>.edge>path:hover{stroke-width:8}</style>
<path fill="none" stroke="black" d="M402.39,-180.88C373.06,-169.15 334.58,-153.75 306.7,-142.6"/>
<polygon fill="#6ac247" stroke="black" points="307.9,-139.31 297.32,-138.85 305.3,-145.81 307.9,-139.31"/>
</g>
<!-- Tumour -->
<g id="node12" class="node">
<title>Tumour</title><style>.edge>path:hover{stroke-width:8}</style>
<polygon fill="#51a446" stroke="black" points="297.2,-361 294.2,-365 273.2,-365 270.2,-361 243.2,-361 243.2,-325 297.2,-325 297.2,-361"/>
<text text-anchor="middle" x="270.2" y="-340.5" font-family="Helvetica,sans-Serif" font-size="10.00" fill="#000000">Tumour</text>
</g>
<!-- Tumour&#45;&gt;Painter -->
<g id="edge20" class="edge">
<title>Tumour&#45;&gt;Painter</title><style>.edge>path:hover{stroke-width:8}</style>
<path fill="none" stroke="black" d="M297.2,-333.93C337.29,-321.13 407.34,-295.24 402.2,-272"/>
<path fill="none" stroke="black" d="M402.2,-270C394.51,-235.23 369.46,-235.06 363.2,-200"/>
</g>
<!-- certifi -->
<g id="node13" class="node">
<title>certifi</title><style>.edge>path:hover{stroke-width:8}</style>
<polygon fill="#4cb352" stroke="black" points="483.2,-577 480.2,-581 459.2,-581 456.2,-577 429.2,-577 429.2,-541 483.2,-541 483.2,-577"/>
<text text-anchor="middle" x="456.2" y="-556.5" font-family="Helvetica,sans-Serif" font-size="10.00" fill="#000000">certifi</text>
</g>
<!-- certifi&#45;&gt;matplotlib -->
<g id="edge21" class="edge">
<title>certifi&#45;&gt;matplotlib</title><style>.edge>path:hover{stroke-width:8}</style>
<path fill="none" stroke="black" d="M456.2,-540.7C456.2,-532.98 456.2,-523.71 456.2,-515.11"/>
<polygon fill="#4cb352" stroke="black" points="459.7,-515.1 456.2,-505.1 452.7,-515.1 459.7,-515.1"/>
</g>
<!-- cffi -->
<g id="node14" class="node">
<title>cffi</title><style>.edge>path:hover{stroke-width:8}</style>
<polygon fill="#47c263" stroke="black" points="910.2,-758 907.2,-762 886.2,-762 883.2,-758 856.2,-758 856.2,-722 910.2,-722 910.2,-758"/>
<text text-anchor="middle" x="883.2" y="-737.5" font-family="Helvetica,sans-Serif" font-size="10.00" fill="#000000">cffi</text>
</g>
<!-- cffi&#45;&gt;PIL -->
<g id="edge22" class="edge">
<title>cffi&#45;&gt;PIL</title><style>.edge>path:hover{stroke-width:8}</style>
<path fill="none" stroke="black" d="M873.72,-721.81C864.22,-704.57 849.46,-677.81 838.53,-657.98"/>
<polygon fill="#47c263" stroke="black" points="841.55,-656.22 833.66,-649.15 835.42,-659.6 841.55,-656.22"/>
</g>
<!-- contourpy -->
<g id="node15" class="node">
<title>contourpy</title><style>.edge>path:hover{stroke-width:8}</style>
<polygon fill="#3ab069" stroke="black" points="444.7,-649 441.7,-653 420.7,-653 417.7,-649 379.7,-649 379.7,-613 444.7,-613 444.7,-649"/>
<text text-anchor="middle" x="412.2" y="-628.5" font-family="Helvetica,sans-Serif" font-size="10.00" fill="#000000">contourpy</text>
</g>
<!-- contourpy&#45;&gt;matplotlib -->
<g id="edge23" class="edge">
<title>contourpy&#45;&gt;matplotlib</title><style>.edge>path:hover{stroke-width:8}</style>
<path fill="none" stroke="black" d="M407.97,-612.86C404.86,-598.76 401.18,-578.21 401.2,-560"/>
</g>
<!-- cv2 -->
<g id="node16" class="node">
<title>cv2</title><style>.edge>path:hover{stroke-width:8}</style>
<polygon fill="#15c177" stroke="black" points="390.2,-433 387.2,-437 366.2,-437 363.2,-433 336.2,-433 336.2,-397 390.2,-397 390.2,-433"/>
<text text-anchor="middle" x="363.2" y="-412.5" font-family="Helvetica,sans-Serif" font-size="10.00" fill="#000000">cv2</text>
</g>
<!-- cv2&#45;&gt;Camera -->
<g id="edge24" class="edge">
<title>cv2&#45;&gt;Camera</title><style>.edge>path:hover{stroke-width:8}</style>
<path fill="none" stroke="black" d="M357.88,-396.95C353.84,-382.91 348.73,-362.39 347.2,-344"/>
<path fill="none" stroke="black" d="M347.2,-342C346.4,-332.38 299.48,-307.15 264.8,-289.76"/>
<polygon fill="#15c177" stroke="black" points="266.35,-286.62 255.84,-285.3 263.24,-292.89 266.35,-286.62"/>
</g>
<!-- cv2&#45;&gt;Image_processor -->
<g id="edge25" class="edge">
<title>cv2&#45;&gt;Image_processor</title><style>.edge>path:hover{stroke-width:8}</style>
<path fill="none" stroke="black" d="M347.2,-342C345.96,-327.21 341.13,-311.46 336.2,-298.64"/>
<polygon fill="#15c177" stroke="black" points="339.32,-297.01 332.31,-289.07 332.84,-299.65 339.32,-297.01"/>
</g>
<!-- cv2&#45;&gt;Model_generator -->
<g id="edge26" class="edge">
<title>cv2&#45;&gt;Model_generator</title><style>.edge>path:hover{stroke-width:8}</style>
<path fill="none" stroke="black" d="M347.2,-342C346.26,-330.71 357.17,-331.85 366.2,-325 401.07,-298.54 417.84,-302.53 449.2,-272"/>
<path fill="none" stroke="black" d="M449.2,-270C457.32,-262.1 458.93,-259.52 468.2,-253 484.49,-241.55 503.52,-230.74 520.46,-221.9"/>
<polygon fill="#15c177" stroke="black" points="522.32,-224.88 529.62,-217.21 519.13,-218.65 522.32,-224.88"/>
</g>
<!-- cv2&#45;&gt;Painter -->
<g id="edge27" class="edge">
<title>cv2&#45;&gt;Painter</title><style>.edge>path:hover{stroke-width:8}</style>
<path fill="none" stroke="black" d="M347.2,-342C343.91,-302.57 410.74,-310.63 402.2,-272"/>
</g>
<!-- outils -->
<g id="node25" class="node">
<title>outils</title><style>.edge>path:hover{stroke-width:8}</style>
<polygon fill="#3c2db4" stroke="black" points="429.2,-361 426.2,-365 405.2,-365 402.2,-361 375.2,-361 375.2,-325 429.2,-325 429.2,-361"/>
<text text-anchor="middle" x="402.2" y="-340.5" font-family="Helvetica,sans-Serif" font-size="10.00" fill="#ffffff">outils</text>
</g>
<!-- cv2&#45;&gt;outils -->
<g id="edge28" class="edge">
<title>cv2&#45;&gt;outils</title><style>.edge>path:hover{stroke-width:8}</style>
<path fill="none" stroke="black" d="M372.84,-396.7C377.33,-388.64 382.76,-378.89 387.72,-369.98"/>
<polygon fill="#15c177" stroke="black" points="390.86,-371.54 392.67,-361.1 384.75,-368.14 390.86,-371.54"/>
</g>
<!-- cycler -->
<g id="node17" class="node">
<title>cycler</title><style>.edge>path:hover{stroke-width:8}</style>
<polygon fill="#2fdbae" stroke="black" points="631.2,-649 628.2,-653 607.2,-653 604.2,-649 577.2,-649 577.2,-613 631.2,-613 631.2,-649"/>
<text text-anchor="middle" x="604.2" y="-628.5" font-family="Helvetica,sans-Serif" font-size="10.00" fill="#000000">cycler</text>
</g>
<!-- cycler&#45;&gt;matplotlib -->
<g id="edge29" class="edge">
<title>cycler&#45;&gt;matplotlib</title><style>.edge>path:hover{stroke-width:8}</style>
<path fill="none" stroke="black" d="M576.82,-626.41C521.39,-618.38 401.16,-596.72 401.2,-560"/>
</g>
<!-- cycler&#45;&gt;pyvista -->
<g id="edge30" class="edge">
<title>cycler&#45;&gt;pyvista</title><style>.edge>path:hover{stroke-width:8}</style>
<path fill="none" stroke="black" d="M617.75,-612.57C625.09,-602.56 633.91,-589.52 640.2,-577 674.22,-509.31 663.5,-484.34 696.2,-416"/>
<path fill="none" stroke="black" d="M696.2,-414C718.66,-366.21 824.41,-385.85 792.2,-344"/>
<path fill="none" stroke="black" d="M792.2,-342C761.83,-302.54 612.73,-282.73 541.82,-275.42"/>
<polygon fill="#2fdbae" stroke="black" points="541.84,-271.9 531.54,-274.39 541.14,-278.87 541.84,-271.9"/>
</g>
<!-- dateutil -->
<g id="node18" class="node">
<title>dateutil</title><style>.edge>path:hover{stroke-width:8}</style>
<polygon fill="#53b6ad" stroke="black" points="361.2,-649 358.2,-653 337.2,-653 334.2,-649 307.2,-649 307.2,-613 361.2,-613 361.2,-649"/>
<text text-anchor="middle" x="334.2" y="-628.5" font-family="Helvetica,sans-Serif" font-size="10.00" fill="#000000">dateutil</text>
</g>
<!-- dateutil&#45;&gt;matplotlib -->
<g id="edge31" class="edge">
<title>dateutil&#45;&gt;matplotlib</title><style>.edge>path:hover{stroke-width:8}</style>
<path fill="none" stroke="black" d="M361.44,-615.44C379.98,-603.34 401.17,-584.22 401.2,-560"/>
<path fill="none" stroke="black" d="M401.2,-558C401.22,-540.21 412.34,-524.27 424.58,-512.1"/>
<polygon fill="#53b6ad" stroke="black" points="427.26,-514.39 432.25,-505.04 422.52,-509.24 427.26,-514.39"/>
</g>
<!-- hid -->
<g id="node19" class="node">
<title>hid</title><style>.edge>path:hover{stroke-width:8}</style>
<polygon fill="#53adb6" stroke="black" points="183.2,-505 180.2,-509 159.2,-509 156.2,-505 129.2,-505 129.2,-469 183.2,-469 183.2,-505"/>
<text text-anchor="middle" x="156.2" y="-484.5" font-family="Helvetica,sans-Serif" font-size="10.00" fill="#000000">hid</text>
</g>
<!-- mcp2210 -->
<g id="node22" class="node">
<title>mcp2210</title><style>.edge>path:hover{stroke-width:8}</style>
<polygon fill="#4c75b3" stroke="black" points="187.2,-361 184.2,-365 163.2,-365 160.2,-361 125.2,-361 125.2,-325 187.2,-325 187.2,-361"/>
<text text-anchor="middle" x="156.2" y="-340.5" font-family="Helvetica,sans-Serif" font-size="10.00" fill="#ffffff">mcp2210</text>
</g>
<!-- hid&#45;&gt;mcp2210 -->
<g id="edge32" class="edge">
<title>hid&#45;&gt;mcp2210</title><style>.edge>path:hover{stroke-width:8}</style>
<path fill="none" stroke="black" d="M156.2,-468.87C156.2,-444.67 156.2,-400.21 156.2,-371.39"/>
<polygon fill="#53adb6" stroke="black" points="159.7,-371.19 156.2,-361.19 152.7,-371.19 159.7,-371.19"/>
</g>
<!-- joblib -->
<g id="node20" class="node">
<title>joblib</title><style>.edge>path:hover{stroke-width:8}</style>
<polygon fill="#16baf3" stroke="black" points="631.2,-577 628.2,-581 607.2,-581 604.2,-577 577.2,-577 577.2,-541 631.2,-541 631.2,-577"/>
<text text-anchor="middle" x="604.2" y="-556.5" font-family="Helvetica,sans-Serif" font-size="10.00" fill="#000000">joblib</text>
</g>
<!-- sklearn -->
<g id="node32" class="node">
<title>sklearn</title><style>.edge>path:hover{stroke-width:8}</style>
<polygon fill="#b3047c" stroke="black" points="539.2,-361 536.2,-365 515.2,-365 512.2,-361 485.2,-361 485.2,-325 539.2,-325 539.2,-361"/>
<text text-anchor="middle" x="512.2" y="-340.5" font-family="Helvetica,sans-Serif" font-size="10.00" fill="#ffffff">sklearn</text>
</g>
<!-- joblib&#45;&gt;sklearn -->
<g id="edge33" class="edge">
<title>joblib&#45;&gt;sklearn</title><style>.edge>path:hover{stroke-width:8}</style>
<path fill="none" stroke="black" d="M600.92,-540.99C598.87,-526.43 597.7,-505.16 604.2,-488"/>
</g>
<!-- matplotlib&#45;&gt;Model_generator -->
<g id="edge34" class="edge">
<title>matplotlib&#45;&gt;Model_generator</title><style>.edge>path:hover{stroke-width:8}</style>
<path fill="none" stroke="black" d="M457.2,-342C456.04,-310.71 426.76,-293.84 449.2,-272"/>
</g>
<!-- matplotlib&#45;&gt;Painter -->
<g id="edge35" class="edge">
<title>matplotlib&#45;&gt;Painter</title><style>.edge>path:hover{stroke-width:8}</style>
<path fill="none" stroke="black" d="M457.2,-414C457.42,-382.89 458.35,-375.09 457.2,-344"/>
<path fill="none" stroke="black" d="M457.2,-342C455.74,-302.46 410.74,-310.63 402.2,-272"/>
</g>
<!-- matplotlib&#45;&gt;Tumour -->
<g id="edge36" class="edge">
<title>matplotlib&#45;&gt;Tumour</title><style>.edge>path:hover{stroke-width:8}</style>
<path fill="none" stroke="black" d="M422.51,-478.23C394.58,-470.47 355.08,-456.27 327.2,-433 306.95,-416.1 291.48,-390.13 281.79,-370.59"/>
<polygon fill="#035795" stroke="black" points="284.84,-368.85 277.39,-361.32 278.52,-371.85 284.84,-368.85"/>
</g>
<!-- matplotlib&#45;&gt;outils -->
<g id="edge37" class="edge">
<title>matplotlib&#45;&gt;outils</title><style>.edge>path:hover{stroke-width:8}</style>
<path fill="none" stroke="black" d="M456.52,-468.74C456.76,-454.57 457.07,-433.99 457.2,-416"/>
<path fill="none" stroke="black" d="M457.2,-414C457.32,-396.21 446.22,-380.27 433.95,-368.1"/>
<polygon fill="#035795" stroke="black" points="435.99,-365.22 426.26,-361.04 431.25,-370.38 435.99,-365.22"/>
</g>
<!-- matplotlib&#45;&gt;pyvista -->
<g id="edge38" class="edge">
<title>matplotlib&#45;&gt;pyvista</title><style>.edge>path:hover{stroke-width:8}</style>
<path fill="none" stroke="black" d="M457.2,-342C456.57,-325.08 466.11,-309.16 476.75,-296.79"/>
<polygon fill="#035795" stroke="black" points="479.56,-298.91 483.81,-289.2 474.43,-294.14 479.56,-298.91"/>
</g>
<!-- matplotlib&#45;&gt;sklearn -->
<g id="edge39" class="edge">
<title>matplotlib&#45;&gt;sklearn</title><style>.edge>path:hover{stroke-width:8}</style>
<path fill="none" stroke="black" d="M457.2,-414C457.32,-396.21 468.46,-380.27 480.67,-368.1"/>
<polygon fill="#035795" stroke="black" points="483.35,-370.39 488.33,-361.04 478.61,-365.25 483.35,-370.39"/>
</g>
<!-- mcp2210&#45;&gt;Mcp -->
<g id="edge40" class="edge">
<title>mcp2210&#45;&gt;Mcp</title><style>.edge>path:hover{stroke-width:8}</style>
<path fill="none" stroke="black" d="M155.95,-324.7C155.84,-316.98 155.71,-307.71 155.59,-299.11"/>
<polygon fill="#4c75b3" stroke="black" points="159.09,-299.05 155.44,-289.1 152.09,-299.15 159.09,-299.05"/>
</g>
<!-- mkl -->
<g id="node23" class="node">
<title>mkl</title><style>.edge>path:hover{stroke-width:8}</style>
<polygon fill="#405dc0" stroke="black" points="754.2,-867 751.2,-871 730.2,-871 727.2,-867 700.2,-867 700.2,-831 754.2,-831 754.2,-867"/>
<text text-anchor="middle" x="727.2" y="-846.5" font-family="Helvetica,sans-Serif" font-size="10.00" fill="#ffffff">mkl</text>
</g>
<!-- numpy -->
<g id="node24" class="node">
<title>numpy</title><style>.edge>path:hover{stroke-width:8}</style>
<polygon fill="#030c95" stroke="black" points="754.2,-758 751.2,-762 730.2,-762 727.2,-758 700.2,-758 700.2,-722 754.2,-722 754.2,-758"/>
<text text-anchor="middle" x="727.2" y="-737.5" font-family="Helvetica,sans-Serif" font-size="10.00" fill="#ffffff">numpy</text>
</g>
<!-- mkl&#45;&gt;numpy -->
<g id="edge41" class="edge">
<title>mkl&#45;&gt;numpy</title><style>.edge>path:hover{stroke-width:8}</style>
<path fill="none" stroke="black" d="M727.2,-830.81C727.2,-813.96 727.2,-788.02 727.2,-768.34"/>
<polygon fill="#405dc0" stroke="black" points="730.7,-768.15 727.2,-758.15 723.7,-768.15 730.7,-768.15"/>
</g>
<!-- numpy&#45;&gt;Goniometer -->
<g id="edge42" class="edge">
<title>numpy&#45;&gt;Goniometer</title><style>.edge>path:hover{stroke-width:8}</style>
<path fill="none" stroke="black" d="M699.83,-737.69C651.68,-734.46 549.69,-723.38 473.2,-686"/>
<path fill="none" stroke="black" d="M473.2,-685C401.86,-650.14 348.37,-710.55 298.2,-649 288.09,-636.6 291.34,-627.45 298.2,-613 314.19,-579.33 367.06,-597.07 363.2,-560"/>
<path fill="none" stroke="black" d="M363.2,-558C346.37,-448.75 195.46,-585.96 120.2,-505 70.98,-452.06 121.31,-412.14 97.2,-344"/>
<path fill="none" stroke="black" d="M97.2,-342C80.98,-298.1 29.52,-329.58 6.2,-289 -1.77,-275.13 -2.21,-266.61 6.2,-253 19.25,-231.88 43.54,-218.9 65.58,-211.07"/>
<polygon fill="#030c95" stroke="black" points="66.76,-214.37 75.17,-207.93 64.58,-207.72 66.76,-214.37"/>
</g>
<!-- numpy&#45;&gt;Image_processor -->
<g id="edge43" class="edge">
<title>numpy&#45;&gt;Image_processor</title><style>.edge>path:hover{stroke-width:8}</style>
<path fill="none" stroke="black" d="M363.2,-558C359.97,-527.06 367,-518.88 363.2,-488"/>
<path fill="none" stroke="black" d="M363.2,-486C356.88,-434.65 301.03,-457.54 270.2,-416"/>
<path fill="none" stroke="black" d="M270.2,-414C244.77,-379.74 213.02,-362.04 234.2,-325 241.66,-311.95 253.72,-301.8 266.62,-294.03"/>
<polygon fill="#030c95" stroke="black" points="268.59,-296.94 275.64,-289.03 265.2,-290.82 268.59,-296.94"/>
</g>
<!-- numpy&#45;&gt;Model_generator -->
<g id="edge44" class="edge">
<title>numpy&#45;&gt;Model_generator</title><style>.edge>path:hover{stroke-width:8}</style>
<path fill="none" stroke="black" d="M754.24,-724.68C792.44,-704.19 859.94,-667.02 881.2,-649 920.44,-615.74 955.2,-611.44 955.2,-560 955.2,-560 955.2,-560 955.2,-342 955.2,-324.66 734.27,-252.81 625.4,-218.45"/>
<polygon fill="#030c95" stroke="black" points="626.45,-215.11 615.86,-215.45 624.35,-221.79 626.45,-215.11"/>
</g>
<!-- numpy&#45;&gt;PIL -->
<g id="edge45" class="edge">
<title>numpy&#45;&gt;PIL</title><style>.edge>path:hover{stroke-width:8}</style>
<path fill="none" stroke="black" d="M786.2,-685C793.56,-676.55 800.92,-666.71 807.16,-657.82"/>
<polygon fill="#030c95" stroke="black" points="810.22,-659.55 813,-649.33 804.45,-655.58 810.22,-659.55"/>
</g>
<!-- numpy&#45;&gt;Painter -->
<g id="edge46" class="edge">
<title>numpy&#45;&gt;Painter</title><style>.edge>path:hover{stroke-width:8}</style>
<path fill="none" stroke="black" d="M97.2,-342C84.41,-303.31 98.47,-288.08 119.2,-253 131.2,-232.69 141.19,-233.34 158.2,-217 174.52,-201.32 176.85,-195.53 194.2,-181 206.95,-170.32 221.79,-159.63 234.96,-150.67"/>
<polygon fill="#030c95" stroke="black" points="236.98,-153.53 243.33,-145.05 233.08,-147.72 236.98,-153.53"/>
</g>
<!-- numpy&#45;&gt;Tumour -->
<g id="edge47" class="edge">
<title>numpy&#45;&gt;Tumour</title><style>.edge>path:hover{stroke-width:8}</style>
<path fill="none" stroke="black" d="M270.2,-414C261.25,-401.95 260.94,-385.23 263.01,-371.15"/>
<polygon fill="#030c95" stroke="black" points="266.51,-371.51 264.96,-361.03 259.63,-370.19 266.51,-371.51"/>
</g>
<!-- numpy&#45;&gt;contourpy -->
<g id="edge48" class="edge">
<title>numpy&#45;&gt;contourpy</title><style>.edge>path:hover{stroke-width:8}</style>
<path fill="none" stroke="black" d="M473.2,-685C459.99,-676.95 446.85,-666.01 436.16,-656.15"/>
<polygon fill="#030c95" stroke="black" points="438.52,-653.56 428.85,-649.23 433.7,-658.64 438.52,-653.56"/>
</g>
<!-- numpy&#45;&gt;cv2 -->
<g id="edge49" class="edge">
<title>numpy&#45;&gt;cv2</title><style>.edge>path:hover{stroke-width:8}</style>
<path fill="none" stroke="black" d="M363.2,-486C361.97,-471.91 361.86,-456.16 362.1,-443.17"/>
<polygon fill="#030c95" stroke="black" points="365.6,-443.1 362.37,-433.01 358.61,-442.91 365.6,-443.1"/>
</g>
<!-- numpy&#45;&gt;matplotlib -->
<g id="edge50" class="edge">
<title>numpy&#45;&gt;matplotlib</title><style>.edge>path:hover{stroke-width:8}</style>
<path fill="none" stroke="black" d="M473.2,-685C444.94,-667.78 470.69,-641.69 454.2,-613 437.6,-584.12 401.16,-593.31 401.2,-560"/>
</g>
<!-- numpy&#45;&gt;outils -->
<g id="edge51" class="edge">
<title>numpy&#45;&gt;outils</title><style>.edge>path:hover{stroke-width:8}</style>
<path fill="none" stroke="black" d="M363.2,-486C360.72,-457.63 390.37,-460.07 399.2,-433 405.7,-413.07 406.15,-389.27 405.14,-371.31"/>
<polygon fill="#030c95" stroke="black" points="408.63,-370.93 404.39,-361.22 401.65,-371.45 408.63,-370.93"/>
</g>
<!-- numpy&#45;&gt;pyvista -->
<g id="edge52" class="edge">
<title>numpy&#45;&gt;pyvista</title><style>.edge>path:hover{stroke-width:8}</style>
<path fill="none" stroke="black" d="M786.2,-685C810.17,-657.38 837.65,-677.8 860.2,-649 885.13,-617.15 871.86,-599.78 879.2,-560"/>
</g>
<!-- scipy -->
<g id="node29" class="node">
<title>scipy</title><style>.edge>path:hover{stroke-width:8}</style>
<polygon fill="#a005c7" stroke="black" points="741.2,-577 738.2,-581 717.2,-581 714.2,-577 687.2,-577 687.2,-541 741.2,-541 741.2,-577"/>
<text text-anchor="middle" x="714.2" y="-556.5" font-family="Helvetica,sans-Serif" font-size="10.00" fill="#ffffff">scipy</text>
</g>
<!-- numpy&#45;&gt;scipy -->
<g id="edge53" class="edge">
<title>numpy&#45;&gt;scipy</title><style>.edge>path:hover{stroke-width:8}</style>
<path fill="none" stroke="black" d="M748.57,-722C760.33,-712.12 774.8,-699.08 786.2,-686"/>
<path fill="none" stroke="black" d="M786.2,-685C800.55,-668.54 761.93,-616.48 735.85,-584.98"/>
<polygon fill="#030c95" stroke="black" points="738.32,-582.47 729.21,-577.07 732.95,-586.97 738.32,-582.47"/>
</g>
<!-- numpy&#45;&gt;sklearn -->
<g id="edge54" class="edge">
<title>numpy&#45;&gt;sklearn</title><style>.edge>path:hover{stroke-width:8}</style>
<path fill="none" stroke="black" d="M473.2,-685C427.74,-658.6 585.59,-537.17 604.2,-488"/>
<path fill="none" stroke="black" d="M604.2,-486C616.19,-454.89 652.65,-441.53 631.2,-416"/>
<path fill="none" stroke="black" d="M631.2,-414C609.23,-387.85 574.84,-369.12 548.68,-357.66"/>
<polygon fill="#030c95" stroke="black" points="550.02,-354.42 539.44,-353.76 547.3,-360.87 550.02,-354.42"/>
</g>
<!-- outils&#45;&gt;Image_processor -->
<g id="edge55" class="edge">
<title>outils&#45;&gt;Image_processor</title><style>.edge>path:hover{stroke-width:8}</style>
<path fill="none" stroke="black" d="M382.92,-324.7C373.28,-316.05 361.47,-305.45 350.97,-296.03"/>
<polygon fill="#3c2db4" stroke="black" points="353.04,-293.18 343.26,-289.1 348.36,-298.39 353.04,-293.18"/>
</g>
<!-- outils&#45;&gt;Model_generator -->
<g id="edge56" class="edge">
<title>outils&#45;&gt;Model_generator</title><style>.edge>path:hover{stroke-width:8}</style>
<path fill="none" stroke="black" d="M411.11,-324.71C419.5,-309.58 433.15,-287.62 449.2,-272"/>
</g>
<!-- outils&#45;&gt;Painter -->
<g id="edge57" class="edge">
<title>outils&#45;&gt;Painter</title><style>.edge>path:hover{stroke-width:8}</style>
<path fill="none" stroke="black" d="M404.25,-324.8C405.47,-310.49 406.11,-289.68 402.2,-272"/>
</g>
<!-- packaging -->
<g id="node26" class="node">
<title>packaging</title><style>.edge>path:hover{stroke-width:8}</style>
<polygon fill="#6a47c2" stroke="black" points="838.2,-758 835.2,-762 814.2,-762 811.2,-758 772.2,-758 772.2,-722 838.2,-722 838.2,-758"/>
<text text-anchor="middle" x="805.2" y="-737.5" font-family="Helvetica,sans-Serif" font-size="10.00" fill="#ffffff">packaging</text>
</g>
<!-- packaging&#45;&gt;PIL -->
<g id="edge58" class="edge">
<title>packaging&#45;&gt;PIL</title><style>.edge>path:hover{stroke-width:8}</style>
<path fill="none" stroke="black" d="M808.25,-721.81C811.26,-704.88 815.89,-678.78 819.39,-659.07"/>
<polygon fill="#6a47c2" stroke="black" points="822.85,-659.61 821.15,-649.15 815.96,-658.38 822.85,-659.61"/>
</g>
<!-- packaging&#45;&gt;matplotlib -->
<g id="edge59" class="edge">
<title>packaging&#45;&gt;matplotlib</title><style>.edge>path:hover{stroke-width:8}</style>
<path fill="none" stroke="black" d="M771.76,-725.37C768.87,-724.22 765.98,-723.08 763.2,-722 676.97,-688.41 640.17,-707.17 568.2,-649 531.67,-619.48 547.88,-589.35 511.2,-560"/>
<path fill="none" stroke="black" d="M511.2,-558C495.32,-545.9 481.46,-528.19 471.62,-513.61"/>
<polygon fill="#6a47c2" stroke="black" points="474.42,-511.49 466.04,-505.01 468.55,-515.3 474.42,-511.49"/>
</g>
<!-- pandas -->
<g id="node27" class="node">
<title>pandas</title><style>.edge>path:hover{stroke-width:8}</style>
<polygon fill="#7719e6" stroke="black" points="851.2,-577 848.2,-581 827.2,-581 824.2,-577 797.2,-577 797.2,-541 851.2,-541 851.2,-577"/>
<text text-anchor="middle" x="824.2" y="-556.5" font-family="Helvetica,sans-Serif" font-size="10.00" fill="#ffffff">pandas</text>
</g>
<!-- pandas&#45;&gt;pyvista -->
<g id="edge60" class="edge">
<title>pandas&#45;&gt;pyvista</title><style>.edge>path:hover{stroke-width:8}</style>
<path fill="none" stroke="black" d="M843.48,-540.87C856.52,-527.87 872.52,-508.74 879.2,-488"/>
<path fill="none" stroke="black" d="M879.2,-486C891.32,-448.35 898.57,-431.49 879.2,-397 857.02,-357.53 820.68,-379.2 792.2,-344"/>
</g>
<!-- pandas&#45;&gt;sklearn -->
<g id="edge61" class="edge">
<title>pandas&#45;&gt;sklearn</title><style>.edge>path:hover{stroke-width:8}</style>
<path fill="none" stroke="black" d="M797.1,-545.62C773.03,-533.58 738.07,-513.4 714.2,-488"/>
</g>
<!-- pyvista&#45;&gt;Model_generator -->
<g id="edge62" class="edge">
<title>pyvista&#45;&gt;Model_generator</title><style>.edge>path:hover{stroke-width:8}</style>
<path fill="none" stroke="black" d="M519.53,-252.7C526.96,-244.3 536.02,-234.07 544.18,-224.86"/>
<polygon fill="#5f0395" stroke="black" points="547.04,-226.91 551.05,-217.1 541.8,-222.27 547.04,-226.91"/>
</g>
<!-- scipy&#45;&gt;pyvista -->
<g id="edge63" class="edge">
<title>scipy&#45;&gt;pyvista</title><style>.edge>path:hover{stroke-width:8}</style>
<path fill="none" stroke="black" d="M721.23,-540.69C727.58,-522.57 735,-493.41 728.2,-469 720.82,-442.49 686.31,-441.68 696.2,-416"/>
</g>
<!-- scipy&#45;&gt;sklearn -->
<g id="edge64" class="edge">
<title>scipy&#45;&gt;sklearn</title><style>.edge>path:hover{stroke-width:8}</style>
<path fill="none" stroke="black" d="M720.06,-540.93C724.3,-525.08 727.26,-501.9 714.2,-488"/>
<path fill="none" stroke="black" d="M714.2,-486C681.15,-450.83 662.24,-452.95 631.2,-416"/>
</g>
<!-- scooby -->
<g id="node30" class="node">
<title>scooby</title><style>.edge>path:hover{stroke-width:8}</style>
<polygon fill="#c833cc" stroke="black" points="778.2,-433 775.2,-437 754.2,-437 751.2,-433 724.2,-433 724.2,-397 778.2,-397 778.2,-433"/>
<text text-anchor="middle" x="751.2" y="-412.5" font-family="Helvetica,sans-Serif" font-size="10.00" fill="#ffffff">scooby</text>
</g>
<!-- scooby&#45;&gt;pyvista -->
<g id="edge65" class="edge">
<title>scooby&#45;&gt;pyvista</title><style>.edge>path:hover{stroke-width:8}</style>
<path fill="none" stroke="black" d="M772.67,-396.97C788.69,-382.2 805.66,-360.64 792.2,-344"/>
</g>
<!-- serial -->
<g id="node31" class="node">
<title>serial</title><style>.edge>path:hover{stroke-width:8}</style>
<polygon fill="#c20aa8" stroke="black" points="69.2,-289 66.2,-293 45.2,-293 42.2,-289 15.2,-289 15.2,-253 69.2,-253 69.2,-289"/>
<text text-anchor="middle" x="42.2" y="-268.5" font-family="Helvetica,sans-Serif" font-size="10.00" fill="#ffffff">serial</text>
</g>
<!-- serial&#45;&gt;Goniometer -->
<g id="edge66" class="edge">
<title>serial&#45;&gt;Goniometer</title><style>.edge>path:hover{stroke-width:8}</style>
<path fill="none" stroke="black" d="M59.5,-252.7C68.06,-244.14 78.54,-233.66 87.89,-224.3"/>
<polygon fill="#c20aa8" stroke="black" points="90.5,-226.65 95.09,-217.1 85.55,-221.7 90.5,-226.65"/>
</g>
<!-- sklearn&#45;&gt;Painter -->
<g id="edge67" class="edge">
<title>sklearn&#45;&gt;Painter</title><style>.edge>path:hover{stroke-width:8}</style>
<path fill="none" stroke="black" d="M484.98,-330.1C453.78,-315.64 406.37,-290.84 402.2,-272"/>
</g>
<!-- threadpoolctl -->
<g id="node33" class="node">
<title>threadpoolctl</title><style>.edge>path:hover{stroke-width:8}</style>
<polygon fill="#c24786" stroke="black" points="978.7,-939 975.7,-943 954.7,-943 951.7,-939 897.7,-939 897.7,-903 978.7,-903 978.7,-939"/>
<text text-anchor="middle" x="938.2" y="-918.5" font-family="Helvetica,sans-Serif" font-size="10.00" fill="#ffffff">threadpoolctl</text>
</g>
<!-- threadpoolctl&#45;&gt;numpy -->
<g id="edge68" class="edge">
<title>threadpoolctl&#45;&gt;numpy</title><style>.edge>path:hover{stroke-width:8}</style>
<path fill="none" stroke="black" d="M943.46,-902.74C950.17,-877.14 958.63,-828.55 938.2,-795"/>
<path fill="none" stroke="black" d="M938.2,-794C891.7,-733.5 842.53,-779.24 764.14,-757.66"/>
<polygon fill="#c24786" stroke="black" points="765.03,-754.27 754.44,-754.69 762.97,-760.96 765.03,-754.27"/>
</g>
<!-- threadpoolctl&#45;&gt;sklearn -->
<g id="edge69" class="edge">
<title>threadpoolctl&#45;&gt;sklearn</title><style>.edge>path:hover{stroke-width:8}</style>
<path fill="none" stroke="black" d="M938.2,-794C918.03,-767.76 931.38,-752.77 919.2,-722 898.92,-670.78 899.78,-651.31 860.2,-613 834.49,-588.12 816.23,-599.23 788.2,-577 747.89,-545.04 749.43,-525.49 714.2,-488"/>
</g>
<!-- vtkmodules -->
<g id="node34" class="node">
<title>vtkmodules</title><style>.edge>path:hover{stroke-width:8}</style>
<polygon fill="#f90659" stroke="black" points="870.2,-433 867.2,-437 846.2,-437 843.2,-433 796.2,-433 796.2,-397 870.2,-397 870.2,-433"/>
<text text-anchor="middle" x="833.2" y="-412.5" font-family="Helvetica,sans-Serif" font-size="10.00" fill="#ffffff">vtkmodules</text>
</g>
<!-- vtkmodules&#45;&gt;pyvista -->
<g id="edge70" class="edge">
<title>vtkmodules&#45;&gt;pyvista</title><style>.edge>path:hover{stroke-width:8}</style>
<path fill="none" stroke="black" d="M825.06,-396.97C817.59,-382.2 805.66,-360.64 792.2,-344"/>
</g>
<!-- yaml -->
<g id="node35" class="node">
<title>yaml</title><style>.edge>path:hover{stroke-width:8}</style>
<polygon fill="#9b263a" stroke="black" points="1020.2,-867 1017.2,-871 996.2,-871 993.2,-867 966.2,-867 966.2,-831 1020.2,-831 1020.2,-867"/>
<text text-anchor="middle" x="993.2" y="-846.5" font-family="Helvetica,sans-Serif" font-size="10.00" fill="#ffffff">yaml</text>
</g>
<!-- yaml&#45;&gt;Run_py -->
<g id="edge71" class="edge">
<title>yaml&#45;&gt;Run_py</title><style>.edge>path:hover{stroke-width:8}</style>
<path fill="none" stroke="black" d="M993.2,-794C966.46,-754.14 993.2,-734 993.2,-686 993.2,-686 993.2,-686 993.2,-342 993.2,-235.86 626.46,-215.37 566.2,-128"/>
</g>
<!-- yaml&#45;&gt;numpy -->
<g id="edge72" class="edge">
<title>yaml&#45;&gt;numpy</title><style>.edge>path:hover{stroke-width:8}</style>
<path fill="none" stroke="black" d="M997.8,-830.83C999.74,-819.7 1000.17,-805.39 993.2,-795"/>
<path fill="none" stroke="black" d="M993.2,-794C965.9,-753.31 828.31,-771.04 764.36,-757.41"/>
<polygon fill="#9b263a" stroke="black" points="764.95,-753.95 754.39,-754.83 763.19,-760.73 764.95,-753.95"/>
</g>
</g>
</svg>
