<?xml version="1.0" encoding="UTF-8" standalone="no"?>
<!DOCTYPE svg PUBLIC "-//W3C//DTD SVG 1.1//EN"
 "http://www.w3.org/Graphics/SVG/1.1/DTD/svg11.dtd">
<!-- Generated by graphviz version 2.43.0 (0)
 -->
<!-- Title: G Pages: 1 -->
<svg width="796pt" height="657pt"
 viewBox="0.00 0.00 795.53 657.00" xmlns="http://www.w3.org/2000/svg" xmlns:xlink="http://www.w3.org/1999/xlink">
<g id="graph0" class="graph" transform="scale(1 1) rotate(0) translate(4 653)">
<title>G</title><style>.edge>path:hover{stroke-width:8}</style>
<polygon fill="white" stroke="transparent" points="-4,4 -4,-653 791.53,-653 791.53,4 -4,4"/>
<!-- Run_py -->
<g id="node1" class="node">
<title>Run_py</title><style>.edge>path:hover{stroke-width:8}</style>
<ellipse fill="#407756" stroke="black" cx="568.53" cy="-18" rx="29.37" ry="18"/>
<text text-anchor="middle" x="568.53" y="-15.5" font-family="Helvetica,sans-Serif" font-size="10.00" fill="#ffffff">Run.py</text>
</g>
<!-- Camera -->
<g id="node2" class="node">
<title>Camera</title><style>.edge>path:hover{stroke-width:8}</style>
<polygon fill="#c04040" stroke="black" points="143.03,-289 140.03,-293 119.03,-293 116.03,-289 88.03,-289 88.03,-253 143.03,-253 143.03,-289"/>
<text text-anchor="middle" x="115.53" y="-268.5" font-family="Helvetica,sans-Serif" font-size="10.00" fill="#ffffff">Camera</text>
</g>
<!-- Goniometer -->
<g id="node4" class="node">
<title>Goniometer</title><style>.edge>path:hover{stroke-width:8}</style>
<polygon fill="#a87b38" stroke="black" points="200.53,-217 197.53,-221 176.53,-221 173.53,-217 126.53,-217 126.53,-181 200.53,-181 200.53,-217"/>
<text text-anchor="middle" x="163.53" y="-196.5" font-family="Helvetica,sans-Serif" font-size="10.00" fill="#000000">Goniometer</text>
</g>
<!-- Camera&#45;&gt;Goniometer -->
<g id="edge1" class="edge">
<title>Camera&#45;&gt;Goniometer</title><style>.edge>path:hover{stroke-width:8}</style>
<path fill="none" stroke="black" d="M127.4,-252.7C133.03,-244.47 139.88,-234.48 146.1,-225.42"/>
<polygon fill="#c04040" stroke="black" points="149.03,-227.33 151.8,-217.1 143.26,-223.37 149.03,-227.33"/>
</g>
<!-- Painter -->
<g id="node9" class="node">
<title>Painter</title><style>.edge>path:hover{stroke-width:8}</style>
<polygon fill="#2e6b34" stroke="black" points="595.53,-145 592.53,-149 571.53,-149 568.53,-145 541.53,-145 541.53,-109 595.53,-109 595.53,-145"/>
<text text-anchor="middle" x="568.53" y="-124.5" font-family="Helvetica,sans-Serif" font-size="10.00" fill="#ffffff">Painter</text>
</g>
<!-- Camera&#45;&gt;Painter -->
<g id="edge2" class="edge">
<title>Camera&#45;&gt;Painter</title><style>.edge>path:hover{stroke-width:8}</style>
<path fill="none" stroke="black" d="M143.19,-256.65C146.31,-255.34 149.47,-254.09 152.53,-253 241.19,-221.45 272.8,-240.94 357.53,-200"/>
<path fill="none" stroke="black" d="M357.53,-198C367.73,-193.07 366.58,-186.43 376.53,-181 426.37,-153.8 491.27,-139.69 531.4,-133.06"/>
<polygon fill="#c04040" stroke="black" points="531.96,-136.52 541.29,-131.5 530.87,-129.6 531.96,-136.52"/>
</g>
<!-- Function_chain -->
<g id="node3" class="node">
<title>Function_chain</title><style>.edge>path:hover{stroke-width:8}</style>
<polygon fill="#b67153" stroke="black" points="291.03,-145 288.03,-149 267.03,-149 264.03,-145 202.03,-145 202.03,-109 291.03,-109 291.03,-145"/>
<text text-anchor="middle" x="246.53" y="-124.5" font-family="Helvetica,sans-Serif" font-size="10.00" fill="#000000">Function_chain</text>
</g>
<!-- Function_chain&#45;&gt;Run_py -->
<g id="edge3" class="edge">
<title>Function_chain&#45;&gt;Run_py</title><style>.edge>path:hover{stroke-width:8}</style>
<path fill="none" stroke="black" d="M291.14,-112.41C295.97,-111.16 300.84,-109.99 305.53,-109 363.24,-96.8 547.58,-128.14 568.53,-73"/>
<path fill="none" stroke="black" d="M568.53,-72C571.56,-64.02 572.4,-54.86 572.23,-46.42"/>
<polygon fill="#b67153" stroke="black" points="575.71,-46.02 571.57,-36.27 568.72,-46.47 575.71,-46.02"/>
</g>
<!-- Goniometer&#45;&gt;Run_py -->
<g id="edge5" class="edge">
<title>Goniometer&#45;&gt;Run_py</title><style>.edge>path:hover{stroke-width:8}</style>
<path fill="none" stroke="black" d="M200.56,-187.27C228.81,-178.23 268.09,-163.76 299.53,-145 309.55,-139.02 309.18,-133.39 319.53,-128"/>
<path fill="none" stroke="black" d="M319.53,-126C369.7,-99.85 548.44,-125.88 568.53,-73"/>
</g>
<!-- Goniometer&#45;&gt;Painter -->
<g id="edge4" class="edge">
<title>Goniometer&#45;&gt;Painter</title><style>.edge>path:hover{stroke-width:8}</style>
<path fill="none" stroke="black" d="M200.54,-191.6C277.48,-178.31 453.89,-147.81 531.14,-134.46"/>
<polygon fill="#a87b38" stroke="black" points="532.11,-137.85 541.37,-132.7 530.92,-130.95 532.11,-137.85"/>
</g>
<!-- Image_processor -->
<g id="node5" class="node">
<title>Image_processor</title><style>.edge>path:hover{stroke-width:8}</style>
<polygon fill="#c8b723" stroke="black" points="261.53,-289 258.53,-293 237.53,-293 234.53,-289 161.53,-289 161.53,-253 261.53,-253 261.53,-289"/>
<text text-anchor="middle" x="211.53" y="-268.5" font-family="Helvetica,sans-Serif" font-size="10.00" fill="#000000">Image_processor</text>
</g>
<!-- Image_processor&#45;&gt;Run_py -->
<g id="edge9" class="edge">
<title>Image_processor&#45;&gt;Run_py</title><style>.edge>path:hover{stroke-width:8}</style>
<path fill="none" stroke="black" d="M223.37,-252.8C248.47,-216.57 305.9,-135.1 319.53,-128"/>
</g>
<!-- Image_processor&#45;&gt;Goniometer -->
<g id="edge6" class="edge">
<title>Image_processor&#45;&gt;Goniometer</title><style>.edge>path:hover{stroke-width:8}</style>
<path fill="none" stroke="black" d="M199.66,-252.7C194.03,-244.47 187.18,-234.48 180.96,-225.42"/>
<polygon fill="#c8b723" stroke="black" points="183.8,-223.37 175.26,-217.1 178.03,-227.33 183.8,-223.37"/>
</g>
<!-- Model_generator -->
<g id="node8" class="node">
<title>Model_generator</title><style>.edge>path:hover{stroke-width:8}</style>
<polygon fill="#49883a" stroke="black" points="485.03,-217 482.03,-221 461.03,-221 458.03,-217 386.03,-217 386.03,-181 485.03,-181 485.03,-217"/>
<text text-anchor="middle" x="435.53" y="-196.5" font-family="Helvetica,sans-Serif" font-size="10.00" fill="#ffffff">Model_generator</text>
</g>
<!-- Image_processor&#45;&gt;Model_generator -->
<g id="edge7" class="edge">
<title>Image_processor&#45;&gt;Model_generator</title><style>.edge>path:hover{stroke-width:8}</style>
<path fill="none" stroke="black" d="M261.8,-254.29C295.64,-243.72 340.41,-229.72 376.03,-218.59"/>
<polygon fill="#c8b723" stroke="black" points="377.31,-221.86 385.81,-215.54 375.23,-215.18 377.31,-221.86"/>
</g>
<!-- Image_processor&#45;&gt;Painter -->
<g id="edge8" class="edge">
<title>Image_processor&#45;&gt;Painter</title><style>.edge>path:hover{stroke-width:8}</style>
<path fill="none" stroke="black" d="M256.93,-252.89C280.36,-243.41 309.08,-230.77 333.53,-217 344.92,-210.58 345.76,-205.69 357.53,-200"/>
</g>
<!-- Laser -->
<g id="node6" class="node">
<title>Laser</title><style>.edge>path:hover{stroke-width:8}</style>
<polygon fill="#9eb34c" stroke="black" points="595.53,-217 592.53,-221 571.53,-221 568.53,-217 541.53,-217 541.53,-181 595.53,-181 595.53,-217"/>
<text text-anchor="middle" x="568.53" y="-196.5" font-family="Helvetica,sans-Serif" font-size="10.00" fill="#000000">Laser</text>
</g>
<!-- Laser&#45;&gt;Painter -->
<g id="edge10" class="edge">
<title>Laser&#45;&gt;Painter</title><style>.edge>path:hover{stroke-width:8}</style>
<path fill="none" stroke="black" d="M568.53,-180.7C568.53,-172.98 568.53,-163.71 568.53,-155.11"/>
<polygon fill="#9eb34c" stroke="black" points="572.03,-155.1 568.53,-145.1 565.03,-155.1 572.03,-155.1"/>
</g>
<!-- Mcp -->
<g id="node7" class="node">
<title>Mcp</title><style>.edge>path:hover{stroke-width:8}</style>
<polygon fill="#80cc33" stroke="black" points="633.53,-289 630.53,-293 609.53,-293 606.53,-289 579.53,-289 579.53,-253 633.53,-253 633.53,-289"/>
<text text-anchor="middle" x="606.53" y="-268.5" font-family="Helvetica,sans-Serif" font-size="10.00" fill="#000000">Mcp</text>
</g>
<!-- Mcp&#45;&gt;Run_py -->
<g id="edge13" class="edge">
<title>Mcp&#45;&gt;Run_py</title><style>.edge>path:hover{stroke-width:8}</style>
<path fill="none" stroke="black" d="M633.56,-270.13C671,-268.66 737.53,-259.76 768.53,-217 777.92,-204.05 775.38,-195.46 768.53,-181 752.86,-147.93 714.16,-163.56 705.53,-128"/>
</g>
<!-- Mcp&#45;&gt;Laser -->
<g id="edge11" class="edge">
<title>Mcp&#45;&gt;Laser</title><style>.edge>path:hover{stroke-width:8}</style>
<path fill="none" stroke="black" d="M597.14,-252.7C592.77,-244.64 587.47,-234.89 582.63,-225.98"/>
<polygon fill="#80cc33" stroke="black" points="585.66,-224.22 577.82,-217.1 579.51,-227.56 585.66,-224.22"/>
</g>
<!-- Mcp&#45;&gt;Painter -->
<g id="edge12" class="edge">
<title>Mcp&#45;&gt;Painter</title><style>.edge>path:hover{stroke-width:8}</style>
<path fill="none" stroke="black" d="M616.6,-252.83C623.72,-238.35 630.81,-217.29 623.53,-200"/>
<path fill="none" stroke="black" d="M623.53,-198C616.54,-181.41 604.53,-165.42 593.51,-152.93"/>
<polygon fill="#80cc33" stroke="black" points="595.81,-150.26 586.47,-145.25 590.64,-154.99 595.81,-150.26"/>
</g>
<!-- Model_generator&#45;&gt;Run_py -->
<g id="edge14" class="edge">
<title>Model_generator&#45;&gt;Run_py</title><style>.edge>path:hover{stroke-width:8}</style>
<path fill="none" stroke="black" d="M485.33,-187.68C564.06,-171.02 708.19,-138.96 705.53,-128"/>
<path fill="none" stroke="black" d="M705.53,-126C690.14,-62.55 545.34,-134.03 568.53,-73"/>
</g>
<!-- Painter&#45;&gt;Run_py -->
<g id="edge15" class="edge">
<title>Painter&#45;&gt;Run_py</title><style>.edge>path:hover{stroke-width:8}</style>
<path fill="none" stroke="black" d="M565.49,-108.73C564.35,-98.09 564.22,-84.35 568.53,-73"/>
</g>
<!-- Socket_connection -->
<g id="node10" class="node">
<title>Socket_connection</title><style>.edge>path:hover{stroke-width:8}</style>
<polygon fill="#47c29d" stroke="black" points="759.03,-217 756.03,-221 735.03,-221 732.03,-217 652.03,-217 652.03,-181 759.03,-181 759.03,-217"/>
<text text-anchor="middle" x="705.53" y="-196.5" font-family="Helvetica,sans-Serif" font-size="10.00" fill="#000000">Socket_connection</text>
</g>
<!-- Socket_connection&#45;&gt;Run_py -->
<g id="edge17" class="edge">
<title>Socket_connection&#45;&gt;Run_py</title><style>.edge>path:hover{stroke-width:8}</style>
<path fill="none" stroke="black" d="M707.77,-180.76C709.1,-166.42 709.8,-145.6 705.53,-128"/>
</g>
<!-- Socket_connection&#45;&gt;Painter -->
<g id="edge16" class="edge">
<title>Socket_connection&#45;&gt;Painter</title><style>.edge>path:hover{stroke-width:8}</style>
<path fill="none" stroke="black" d="M672.02,-180.88C651.68,-170.49 625.73,-157.22 604.9,-146.58"/>
<polygon fill="#47c29d" stroke="black" points="606.22,-143.33 595.72,-141.9 603.04,-149.56 606.22,-143.33"/>
</g>
<!-- Tumour -->
<g id="node11" class="node">
<title>Tumour</title><style>.edge>path:hover{stroke-width:8}</style>
<polygon fill="#46a4a4" stroke="black" points="500.53,-361 497.53,-365 476.53,-365 473.53,-361 446.53,-361 446.53,-325 500.53,-325 500.53,-361"/>
<text text-anchor="middle" x="473.53" y="-340.5" font-family="Helvetica,sans-Serif" font-size="10.00" fill="#000000">Tumour</text>
</g>
<!-- Tumour&#45;&gt;Painter -->
<g id="edge18" class="edge">
<title>Tumour&#45;&gt;Painter</title><style>.edge>path:hover{stroke-width:8}</style>
<path fill="none" stroke="black" d="M480.51,-324.88C484.68,-314.53 490.02,-301.05 494.53,-289 512.35,-241.34 509.6,-226.42 532.53,-181 537.22,-171.71 543.28,-162.14 549.1,-153.73"/>
<polygon fill="#46a4a4" stroke="black" points="552.05,-155.62 554.99,-145.44 546.34,-151.56 552.05,-155.62"/>
</g>
<!-- cv2 -->
<g id="node12" class="node">
<title>cv2</title><style>.edge>path:hover{stroke-width:8}</style>
<polygon fill="#19a8e6" stroke="black" points="316.53,-433 313.53,-437 292.53,-437 289.53,-433 262.53,-433 262.53,-397 316.53,-397 316.53,-433"/>
<text text-anchor="middle" x="289.53" y="-412.5" font-family="Helvetica,sans-Serif" font-size="10.00" fill="#000000">cv2</text>
</g>
<!-- cv2&#45;&gt;Camera -->
<g id="edge19" class="edge">
<title>cv2&#45;&gt;Camera</title><style>.edge>path:hover{stroke-width:8}</style>
<path fill="none" stroke="black" d="M268.54,-396.87C237.58,-371.6 179.56,-324.25 144.54,-295.68"/>
<polygon fill="#19a8e6" stroke="black" points="146.55,-292.8 136.59,-289.19 142.13,-298.22 146.55,-292.8"/>
</g>
<!-- cv2&#45;&gt;Image_processor -->
<g id="edge20" class="edge">
<title>cv2&#45;&gt;Image_processor</title><style>.edge>path:hover{stroke-width:8}</style>
<path fill="none" stroke="black" d="M290.4,-396.99C290.91,-382.79 291.19,-362.03 289.53,-344"/>
<path fill="none" stroke="black" d="M289.53,-342C287.69,-321.94 272.85,-306.14 256.61,-294.67"/>
<polygon fill="#19a8e6" stroke="black" points="258.33,-291.61 248.04,-289.06 254.49,-297.47 258.33,-291.61"/>
</g>
<!-- cv2&#45;&gt;Model_generator -->
<g id="edge21" class="edge">
<title>cv2&#45;&gt;Model_generator</title><style>.edge>path:hover{stroke-width:8}</style>
<path fill="none" stroke="black" d="M289.53,-342C284.39,-286 341.99,-244.77 386.35,-221.58"/>
<polygon fill="#19a8e6" stroke="black" points="387.97,-224.68 395.31,-217.04 384.81,-218.44 387.97,-224.68"/>
</g>
<!-- cv2&#45;&gt;Painter -->
<g id="edge22" class="edge">
<title>cv2&#45;&gt;Painter</title><style>.edge>path:hover{stroke-width:8}</style>
<path fill="none" stroke="black" d="M289.53,-342C286.27,-311.06 283.47,-302.52 289.53,-272"/>
<path fill="none" stroke="black" d="M289.53,-270C291.49,-260.14 334.96,-210.91 357.53,-200"/>
</g>
<!-- outils -->
<g id="node16" class="node">
<title>outils</title><style>.edge>path:hover{stroke-width:8}</style>
<polygon fill="#702db4" stroke="black" points="371.53,-361 368.53,-365 347.53,-365 344.53,-361 317.53,-361 317.53,-325 371.53,-325 371.53,-361"/>
<text text-anchor="middle" x="344.53" y="-340.5" font-family="Helvetica,sans-Serif" font-size="10.00" fill="#ffffff">outils</text>
</g>
<!-- cv2&#45;&gt;outils -->
<g id="edge23" class="edge">
<title>cv2&#45;&gt;outils</title><style>.edge>path:hover{stroke-width:8}</style>
<path fill="none" stroke="black" d="M303.13,-396.7C309.65,-388.39 317.6,-378.28 324.78,-369.14"/>
<polygon fill="#19a8e6" stroke="black" points="327.66,-371.13 331.09,-361.1 322.16,-366.81 327.66,-371.13"/>
</g>
<!-- matplotlib -->
<g id="node13" class="node">
<title>matplotlib</title><style>.edge>path:hover{stroke-width:8}</style>
<polygon fill="#055bdb" stroke="black" points="478.03,-505 475.03,-509 454.03,-509 451.03,-505 411.03,-505 411.03,-469 478.03,-469 478.03,-505"/>
<text text-anchor="middle" x="444.53" y="-484.5" font-family="Helvetica,sans-Serif" font-size="10.00" fill="#ffffff">matplotlib</text>
</g>
<!-- matplotlib&#45;&gt;Model_generator -->
<g id="edge24" class="edge">
<title>matplotlib&#45;&gt;Model_generator</title><style>.edge>path:hover{stroke-width:8}</style>
<path fill="none" stroke="black" d="M403.53,-342C399.53,-311.15 391.31,-300.61 403.53,-272"/>
</g>
<!-- matplotlib&#45;&gt;Painter -->
<g id="edge25" class="edge">
<title>matplotlib&#45;&gt;Painter</title><style>.edge>path:hover{stroke-width:8}</style>
<path fill="none" stroke="black" d="M403.53,-414C396.33,-383.73 407.53,-374.85 403.53,-344"/>
<path fill="none" stroke="black" d="M403.53,-342C395,-276.21 297.8,-228.86 357.53,-200"/>
</g>
<!-- matplotlib&#45;&gt;Tumour -->
<g id="edge26" class="edge">
<title>matplotlib&#45;&gt;Tumour</title><style>.edge>path:hover{stroke-width:8}</style>
<path fill="none" stroke="black" d="M403.53,-414C398.2,-391.57 417.68,-373.43 437.43,-361.23"/>
<polygon fill="#055bdb" stroke="black" points="439.21,-364.24 446.13,-356.22 435.72,-358.18 439.21,-364.24"/>
</g>
<!-- matplotlib&#45;&gt;outils -->
<g id="edge27" class="edge">
<title>matplotlib&#45;&gt;outils</title><style>.edge>path:hover{stroke-width:8}</style>
<path fill="none" stroke="black" d="M430.55,-468.86C420.61,-455.41 408.22,-435.73 403.53,-416"/>
<path fill="none" stroke="black" d="M403.53,-414C399.3,-396.2 386.94,-380.26 374.63,-368.1"/>
<polygon fill="#055bdb" stroke="black" points="376.74,-365.28 367.04,-361.03 371.97,-370.41 376.74,-365.28"/>
</g>
<!-- mcp2210 -->
<g id="node14" class="node">
<title>mcp2210</title><style>.edge>path:hover{stroke-width:8}</style>
<polygon fill="#535db6" stroke="black" points="633.53,-361 630.53,-365 609.53,-365 606.53,-361 571.53,-361 571.53,-325 633.53,-325 633.53,-361"/>
<text text-anchor="middle" x="602.53" y="-340.5" font-family="Helvetica,sans-Serif" font-size="10.00" fill="#ffffff">mcp2210</text>
</g>
<!-- mcp2210&#45;&gt;Mcp -->
<g id="edge28" class="edge">
<title>mcp2210&#45;&gt;Mcp</title><style>.edge>path:hover{stroke-width:8}</style>
<path fill="none" stroke="black" d="M603.52,-324.7C603.96,-316.98 604.49,-307.71 604.98,-299.11"/>
<polygon fill="#535db6" stroke="black" points="608.48,-299.29 605.55,-289.1 601.49,-298.89 608.48,-299.29"/>
</g>
<!-- numpy -->
<g id="node15" class="node">
<title>numpy</title><style>.edge>path:hover{stroke-width:8}</style>
<polygon fill="#3706f9" stroke="black" points="529.53,-649 526.53,-653 505.53,-653 502.53,-649 475.53,-649 475.53,-613 529.53,-613 529.53,-649"/>
<text text-anchor="middle" x="502.53" y="-628.5" font-family="Helvetica,sans-Serif" font-size="10.00" fill="#ffffff">numpy</text>
</g>
<!-- numpy&#45;&gt;Goniometer -->
<g id="edge29" class="edge">
<title>numpy&#45;&gt;Goniometer</title><style>.edge>path:hover{stroke-width:8}</style>
<path fill="none" stroke="black" d="M496.96,-612.93C492.01,-598.52 484.24,-577.49 475.53,-560"/>
<path fill="none" stroke="black" d="M475.53,-558C446.11,-498.91 396.4,-528.84 344.53,-488"/>
<path fill="none" stroke="black" d="M344.53,-486C292.05,-444.68 266.68,-453.69 211.53,-416"/>
<path fill="none" stroke="black" d="M211.53,-414C123.42,-353.79 58.78,-382.05 6.53,-289 -1.3,-275.05 -2.8,-266 6.53,-253 31.3,-218.5 79.7,-206.17 116.25,-201.9"/>
<polygon fill="#3706f9" stroke="black" points="116.62,-205.39 126.22,-200.91 115.92,-198.42 116.62,-205.39"/>
</g>
<!-- numpy&#45;&gt;Image_processor -->
<g id="edge30" class="edge">
<title>numpy&#45;&gt;Image_processor</title><style>.edge>path:hover{stroke-width:8}</style>
<path fill="none" stroke="black" d="M211.53,-414C177.06,-388.84 189.21,-332.78 200.69,-299.12"/>
<polygon fill="#3706f9" stroke="black" points="204.07,-300.04 204.17,-289.45 197.49,-297.66 204.07,-300.04"/>
</g>
<!-- numpy&#45;&gt;Model_generator -->
<g id="edge31" class="edge">
<title>numpy&#45;&gt;Model_generator</title><style>.edge>path:hover{stroke-width:8}</style>
<path fill="none" stroke="black" d="M543.53,-414C571.17,-344.5 534.71,-316.08 494.53,-253 487.59,-242.11 477.83,-232.09 468.23,-223.76"/>
<polygon fill="#3706f9" stroke="black" points="470.21,-220.86 460.28,-217.18 465.75,-226.25 470.21,-220.86"/>
</g>
<!-- numpy&#45;&gt;Painter -->
<g id="edge32" class="edge">
<title>numpy&#45;&gt;Painter</title><style>.edge>path:hover{stroke-width:8}</style>
<path fill="none" stroke="black" d="M543.53,-414C566.56,-357.54 638.1,-400.3 661.53,-344"/>
<path fill="none" stroke="black" d="M661.53,-342C686.64,-281.68 648.89,-260.21 623.53,-200"/>
</g>
<!-- numpy&#45;&gt;Tumour -->
<g id="edge33" class="edge">
<title>numpy&#45;&gt;Tumour</title><style>.edge>path:hover{stroke-width:8}</style>
<path fill="none" stroke="black" d="M475.53,-558C460.25,-526.53 531.64,-448.91 543.53,-416"/>
<path fill="none" stroke="black" d="M543.53,-414C552.31,-391.92 531.19,-373.27 509.91,-360.79"/>
<polygon fill="#3706f9" stroke="black" points="511.31,-357.57 500.86,-355.83 507.95,-363.71 511.31,-357.57"/>
</g>
<!-- numpy&#45;&gt;cv2 -->
<g id="edge34" class="edge">
<title>numpy&#45;&gt;cv2</title><style>.edge>path:hover{stroke-width:8}</style>
<path fill="none" stroke="black" d="M344.53,-486C329.09,-473.55 315.3,-455.98 305.4,-441.57"/>
<polygon fill="#3706f9" stroke="black" points="308.2,-439.46 299.75,-433.07 302.37,-443.33 308.2,-439.46"/>
</g>
<!-- numpy&#45;&gt;matplotlib -->
<g id="edge35" class="edge">
<title>numpy&#45;&gt;matplotlib</title><style>.edge>path:hover{stroke-width:8}</style>
<path fill="none" stroke="black" d="M475.53,-558C468.64,-543.8 461.47,-527.72 455.77,-514.55"/>
<polygon fill="#3706f9" stroke="black" points="458.88,-512.93 451.72,-505.13 452.45,-515.7 458.88,-512.93"/>
</g>
<!-- numpy&#45;&gt;outils -->
<g id="edge36" class="edge">
<title>numpy&#45;&gt;outils</title><style>.edge>path:hover{stroke-width:8}</style>
<path fill="none" stroke="black" d="M344.53,-486C327.41,-472.2 334.15,-408.68 339.81,-371.43"/>
<polygon fill="#3706f9" stroke="black" points="343.32,-371.67 341.43,-361.25 336.4,-370.57 343.32,-371.67"/>
</g>
<!-- sklearn -->
<g id="node19" class="node">
<title>sklearn</title><style>.edge>path:hover{stroke-width:8}</style>
<polygon fill="#b83d87" stroke="black" points="604.53,-577 601.53,-581 580.53,-581 577.53,-577 550.53,-577 550.53,-541 604.53,-541 604.53,-577"/>
<text text-anchor="middle" x="577.53" y="-556.5" font-family="Helvetica,sans-Serif" font-size="10.00" fill="#ffffff">sklearn</text>
</g>
<!-- numpy&#45;&gt;sklearn -->
<g id="edge37" class="edge">
<title>numpy&#45;&gt;sklearn</title><style>.edge>path:hover{stroke-width:8}</style>
<path fill="none" stroke="black" d="M521.07,-612.7C530.33,-604.05 541.69,-593.45 551.79,-584.03"/>
<polygon fill="#3706f9" stroke="black" points="554.28,-586.49 559.2,-577.1 549.51,-581.37 554.28,-586.49"/>
</g>
<!-- outils&#45;&gt;Image_processor -->
<g id="edge38" class="edge">
<title>outils&#45;&gt;Image_processor</title><style>.edge>path:hover{stroke-width:8}</style>
<path fill="none" stroke="black" d="M317.29,-327.67C298.76,-317.91 273.88,-304.82 252.91,-293.78"/>
<polygon fill="#702db4" stroke="black" points="254.37,-290.59 243.89,-289.03 251.11,-296.79 254.37,-290.59"/>
</g>
<!-- outils&#45;&gt;Model_generator -->
<g id="edge39" class="edge">
<title>outils&#45;&gt;Model_generator</title><style>.edge>path:hover{stroke-width:8}</style>
<path fill="none" stroke="black" d="M364.22,-324.79C377.73,-311.75 394.73,-292.61 403.53,-272"/>
<path fill="none" stroke="black" d="M403.53,-270C409.72,-255.51 417,-239.51 423.05,-226.47"/>
<polygon fill="#702db4" stroke="black" points="426.34,-227.69 427.4,-217.15 420,-224.73 426.34,-227.69"/>
</g>
<!-- outils&#45;&gt;Painter -->
<g id="edge40" class="edge">
<title>outils&#45;&gt;Painter</title><style>.edge>path:hover{stroke-width:8}</style>
<path fill="none" stroke="black" d="M318.29,-324.98C302.16,-312.17 285.32,-293.22 289.53,-272"/>
</g>
<!-- pyvista -->
<g id="node17" class="node">
<title>pyvista</title><style>.edge>path:hover{stroke-width:8}</style>
<polygon fill="#a640c0" stroke="black" points="485.53,-289 482.53,-293 461.53,-293 458.53,-289 431.53,-289 431.53,-253 485.53,-253 485.53,-289"/>
<text text-anchor="middle" x="458.53" y="-268.5" font-family="Helvetica,sans-Serif" font-size="10.00" fill="#ffffff">pyvista</text>
</g>
<!-- pyvista&#45;&gt;Model_generator -->
<g id="edge41" class="edge">
<title>pyvista&#45;&gt;Model_generator</title><style>.edge>path:hover{stroke-width:8}</style>
<path fill="none" stroke="black" d="M452.84,-252.7C450.28,-244.9 447.2,-235.51 444.35,-226.83"/>
<polygon fill="#a640c0" stroke="black" points="447.6,-225.51 441.15,-217.1 440.95,-227.7 447.6,-225.51"/>
</g>
<!-- serial -->
<g id="node18" class="node">
<title>serial</title><style>.edge>path:hover{stroke-width:8}</style>
<polygon fill="#c040b3" stroke="black" points="69.53,-289 66.53,-293 45.53,-293 42.53,-289 15.53,-289 15.53,-253 69.53,-253 69.53,-289"/>
<text text-anchor="middle" x="42.53" y="-268.5" font-family="Helvetica,sans-Serif" font-size="10.00" fill="#ffffff">serial</text>
</g>
<!-- serial&#45;&gt;Goniometer -->
<g id="edge42" class="edge">
<title>serial&#45;&gt;Goniometer</title><style>.edge>path:hover{stroke-width:8}</style>
<path fill="none" stroke="black" d="M69.68,-254.29C85.94,-244.89 106.87,-232.78 124.84,-222.38"/>
<polygon fill="#c040b3" stroke="black" points="127.02,-225.16 133.92,-217.13 123.52,-219.11 127.02,-225.16"/>
</g>
<!-- sklearn&#45;&gt;Painter -->
<g id="edge43" class="edge">
<title>sklearn&#45;&gt;Painter</title><style>.edge>path:hover{stroke-width:8}</style>
<path fill="none" stroke="black" d="M584.64,-540.94C599.59,-504.85 635.07,-418.04 661.53,-344"/>
</g>
<!-- yaml -->
<g id="node20" class="node">
<title>yaml</title><style>.edge>path:hover{stroke-width:8}</style>
<polygon fill="#91304d" stroke="black" points="787.53,-145 784.53,-149 763.53,-149 760.53,-145 733.53,-145 733.53,-109 787.53,-109 787.53,-145"/>
<text text-anchor="middle" x="760.53" y="-124.5" font-family="Helvetica,sans-Serif" font-size="10.00" fill="#ffffff">yaml</text>
</g>
<!-- yaml&#45;&gt;Run_py -->
<g id="edge44" class="edge">
<title>yaml&#45;&gt;Run_py</title><style>.edge>path:hover{stroke-width:8}</style>
<path fill="none" stroke="black" d="M733.41,-114.05C728.82,-112.23 724.07,-110.47 719.53,-109 653.9,-87.72 544.03,-137.49 568.53,-73"/>
</g>
</g>
</svg>
